<svg viewBox="0 0 1024 1024" version="1.1" xmlns="http://www.w3.org/2000/svg"><g fill="none" fill-rule="evenodd"><path fill="#54C69A" d="M204.8 102.4H819.2A102.4 102.4 0 0 1 921.6 204.8V819.2A102.4 102.4 0 0 1 819.2 921.6H204.8A102.4 102.4 0 0 1 102.4 819.2V204.8A102.4 102.4 0 0 1 204.8 102.4z"/><path fill="#FFF" d="M712.133632 252.456180224C712.3471718400001 261.330423808 709.1301888 269.95469772800004 703.1301888 276.593116672 697.6119552 283.110089728 689.3010841600001 286.884228608 680.5657395200001 286.818400768 672.71259136 287.480720384 665.05991168 284.153055232 660.28007424 277.99744768 654.7341926400001 269.05619865600005 650.4927488000001 259.39506176000003 647.6797286400001 249.296435712 646.5626726400001 244.99567206400002 644.55198208 240.95822131199998 641.7593497600001 237.447394304 639.05865728 234.517454848 635.13967616 232.964878336 631.12501248 233.23440179200003 625.94582016 233.092567552 621.1190528000001 235.80153804800003 618.61403136 240.25605632000003 615.28521728 246.048920576 612.80536064 252.23675392 611.19680512 258.687898624L572.9266022400001 387.66691072000003 626.07593984 387.66691072000003 616.87142912 417.61865472 563.8561382400001 417.61865472 508.85249331200004 603.40723712C497.69931315200006 642.1111603200001 484.52296960000007 680.2249113600001 469.375873024 717.59689216 458.11692697600006 744.57171456 441.22054348800003 768.92614144 419.77876019200005 789.0861107200001 397.879233536 809.29686016 368.667836416 820.0794982400001 338.636097536 819.03785472 319.226902528 820.25024 300.01252352 814.6338304000001 284.43673088 803.1952435200001 272.871023616 794.75666432 265.835249664 781.61414656 265.309866496 767.47257856 265.192452608 757.7890918400001 268.780675584 748.41461248 275.366267392 741.20720384 281.939857408 733.76057856 291.588264448 729.6313036800001 301.616991744 729.9725568 311.46939084800005 728.6121113600001 321.277108224 732.7153920000001 326.974073856 740.5928089600001 331.39760025600003 749.21627648 333.94447923200005 758.6296832 334.480663552 768.24057344 335.754102784 783.00798976 341.96491264 790.40266752 352.84500019200004 790.40266752 364.54969088 789.78159616 374.86520371200004 782.6494464000001 379.408498688 772.0366540800001 388.56832563200004 753.9558963200001 395.672776704 734.975488 400.65482905600004 715.42456832L488.901943296 418.01362278400006 433.22806784000005 418.01362278400006 442.075120128 387.996050432 497.726654976 387.996050432 503.691713024 367.128571392C510.84084633599997 340.687654912 519.93364992 314.77336166400005 530.94778368 289.60512 541.17223936 267.055130624 556.23908352 246.94247936000002 575.11602176 230.645166592 595.20388096 213.17336576 621.3552588800001 203.944024576 648.17122816 204.862529536 658.89492992 204.862529536 669.5292672 206.77154252800003 679.51570944 210.567624192 688.7649024000001 213.902909952 696.9417216 219.52023296000004 703.19721472 226.8710272 709.22929664 234.11210854400002 712.4017254400001 243.17443072000003 712.133632 252.456180224Z"/></g></svg>