<svg viewBox="0 0 1024 1024" version="1.1" xmlns="http://www.w3.org/2000/svg"><g fill="none"><path fill="#0C4DA0" d="M630.7460437333333 535.2510674488889L946.8271559111109 850.121216C932.0030663111111 859.2599495111111 914.9048263111109 864.0775793777777 897.4717724444445 864.0280689777777L126.6168007111111 864.0280689777777C109.20057059555555 864.0756223999999 92.11979434666665 859.2577649777777 77.31413566577777 850.121216L393.3741641955555 535.2510674488889 492.9916967822223 624.1621287822222C503.8160224711111 633.8598485333333 520.2409216 633.8598485333333 531.0652472888889 624.1621287822222L630.7460437333333 535.2510674488889ZM38.98753427911111 218.98397013333332L350.8511425422222 497.32338346666666 39.78886075733333 807.1729208888889C34.65141138773333 795.3832675555556 32.00966299727644 782.6649258666667 32.02854495288035 769.8124174222222L32.02854495288035 254.21228714666665C32.03584677461333 242.13135359999998 34.399267180088884 230.16689550222225 38.98753427911111 218.98397013333332ZM985.069408711111 218.98397013333332C989.6605184 230.16604728888888 992.0240469333331 242.1310663111111 992.0283704888888 254.21228714666665L992.0283704888888 769.8439281777778C992.0444529777776 782.6849052444444 989.4064639999998 795.3916871111111 984.2786247111109 807.1729208888889L673.2374300444445 497.32338346666666 985.069408711111 218.98397013333332Z"/><path fill="#FF9600" d="M491.36795591111115 546.5001807644444L75.35299458844443 175.18490043733334C90.60705848888888 165.294183424 108.41606883555555 160.02844444444435 126.6168007111111 160.02844444444435L897.4717724444445 160.02844444444435C915.6936704 160.00367894345956 933.524690488889 165.2905023943111 948.7672149333332 175.23741735822222L613.8232945777778 474.2159604622222 611.6301880888889 476.0855608888889 532.6784443733334 546.51068416C520.9155532799999 556.9892539733333 503.1254761244445 556.9847307377778 491.36795591111115 546.5001807644444L491.36795591111115 546.5001807644444Z"/></g></svg>