<svg viewBox="0 0 31 16" version="1.1" xmlns="http://www.w3.org/2000/svg"><path fill="#e6f5eb" d="M2,0h27c1.1,0,2,0.9,2,2v12c0,1.1-0.9,2-2,2H2c-1.1,0-2-0.9-2-2V2C0,0.9,0.9,0,2,0z"/><path fill="#10c178" d="M11.8,11.4h-1.5L7.5,7C7.4,6.8,7.2,6.6,7.1,6.4l0,0c0,0.4,0,0.7,0,1.1v3.9H5.8V4.6h1.6l2.8,4.3	c0.2,0.3,0.3,0.5,0.3,0.5l0,0c0-0.3,0-0.6,0-0.9V4.6h1.4L11.8,11.4z"/><path fill="#10c178" d="M17.6,9.4h-3.2c0,0.8,0.5,1.1,1.4,1.1c0.5,0,1-0.1,1.4-0.4v1c-0.5,0.3-1.1,0.4-1.7,0.4c-0.7,0-1.3-0.2-1.8-0.6	C13.2,10.3,13,9.7,13,9c0-0.7,0.2-1.4,0.7-1.9c0.4-0.5,1.1-0.7,1.7-0.7C16,6.4,16.6,6.6,17,7c0.4,0.5,0.6,1.1,0.6,1.7L17.6,9.4z M16.3,8.5c0-0.7-0.3-1.1-0.9-1.1c-0.2,0-0.5,0.1-0.6,0.3c-0.2,0.2-0.3,0.5-0.4,0.8H16.3z"/><path fill="#10c178" d="M25.5,6.5L24,11.4h-1.4l-0.8-2.9c-0.1-0.2-0.1-0.4-0.1-0.6l0,0c0,0.2,0,0.4-0.1,0.6l-0.8,2.9h-1.5L18,6.5h1.4	l0.7,3.2c0,0.2,0.1,0.4,0.1,0.5l0,0c0-0.2,0-0.4,0.1-0.6l0.9-3.2h1.4l0.8,3.2c0,0.1,0,0.3,0.1,0.5l0,0c0-0.2,0-0.4,0.1-0.5l0.7-3.2	H25.5z"/></svg>
