<svg viewBox="0 0 1024 1024" version="1.1" xmlns="http://www.w3.org/2000/svg"><g fill="none"><path fill="#FF5D50" d="M675.9423886222222 991.9849870222222L351.4556387555555 991.9849870222222C273.32513905777773 991.9849870222222 209.97688888888888 907.4512327111111 209.97688888888888 803.1918819555555L209.97688888888888 222.35521706666665C209.97688888888888 118.09703367111109 273.32513905777773 33.56444444444434 351.4556387555555 33.56444444444434L675.9423886222222 33.56444444444434C754.0737638399999 33.56444444444434 817.4211413333333 118.09703367111109 817.4211413333333 222.35521706666665L817.4211413333333 803.2525937777777C817.4211413333333 907.4523989333333 754.0737638399999 991.9849870222222 675.9423886222222 991.9849870222222L675.9423886222222 991.9849870222222Z"/><path fill="#FFDF99" d="M663.3537638399999 699.2487367111111L363.99963875555557 699.2487367111111C326.99588892444444 699.2487367111111 296.9343886222222 656.8594830222221 296.9343886222222 604.5377251555556L296.9343886222222 230.18419143111112C296.9343886222222 177.86119509333332 326.9503886222222 135.47194424888886 363.99963875555557 135.47194424888886L663.3537638399999 135.47194424888886C700.4030139733333 135.47194424888886 730.4190139733333 177.86119509333332 730.4190139733333 230.18295580444442L730.4190139733333 604.5364906666666C730.4190139733333 656.8594830222221 700.4030139733333 699.2487367111111 663.3537638399999 699.2487367111111L663.3537638399999 699.2487367111111ZM454.27163875555556 841.6583111111111C454.27163875555556 863.0248334222222 465.5941791288888 882.7683157333332 483.9741696 893.4515768888888 502.3541600711111 904.1348323555555 524.9992425244444 904.1348323555555 543.3792329955555 893.4515768888888 561.7592234666666 882.7683157333332 573.0817638399999 863.0248334222222 573.0817638399999 841.6583111111111 573.0817638399999 808.6285312 546.485211591111 781.8526037333332 513.6767015822222 781.8526037333332 480.86819157333326 781.8526037333332 454.27163875555556 808.6285312 454.27163875555556 841.6583111111111L454.27163875555556 841.6583111111111Z"/></g></svg>