<svg viewBox="0 0 1024 1024" version="1.1" xmlns="http://www.w3.org/2000/svg"><g fill="none" fill-rule="evenodd"><path fill="#F8B64F" d="M204.8 102.4H819.2A102.4 102.4 0 0 1 921.6 204.8V819.2A102.4 102.4 0 0 1 819.2 921.6H204.8A102.4 102.4 0 0 1 102.4 819.2V204.8A102.4 102.4 0 0 1 204.8 102.4z"/><path fill="#FFF" fill-rule="nonzero" d="M484.10000025600004 666.100000256L484.10000025600004 540.4C444.899999744 529.2 416.15000012800004 512.249999872 397.8499999744 489.550000128 379.5500000256 466.849999872 370.40000000000003 439.30000025600003 370.40000000000003 406.899999744 370.40000000000003 374.10000025600004 380.7500000256 346.550000128 401.44999997440004 324.249999872 422.15000012800004 301.9500000256 449.699999744 289.1 484.10000025600004 285.7L484.10000025600004 256 527.6 256 527.6 285.7C559.4 289.5 584.699999744 300.3500000256 603.500000256 318.249999872 622.3000002560001 336.15000012800004 634.299999744 360.099999744 639.500000256 390.10000025600004L563.6 400C559 376.40000000000003 547 360.40000000000003 527.6 352L527.6 469.299999744C575.6 482.299999744 608.3000002560001 499.15000012800004 625.699999744 519.849999872 643.100000256 540.5500001280001 651.8000000000001 567.100000256 651.8000000000001 599.499999744 651.8000000000001 635.699999744 640.849999872 666.2 618.950000128 691 597.0499998720001 715.8000000000001 566.6 731 527.6 736.6L527.6 792.70000128 484.10000025600004 792.70000128 484.10000025600004 738.099999744C449.500000256 733.9000002560001 421.40000000000003 721 399.8 699.4000000000001 378.20000000000005 677.8000000000001 364.40000000000003 647.3000002560001 358.40000000000003 607.900000256L436.70000025600007 599.499999744C439.90000025600006 615.500000256 445.899999744 629.3000002560001 454.70000025600007 640.8999997440001 463.499999744 652.500000256 473.299999744 660.9000002560001 484.10000025600004 666.100000256ZM484.099999744 351.10000025600004C472.30000025600003 355.10000025600004 462.899999744 361.899999744 455.90000025600006 371.499999744 448.899999744 381.099999744 445.40000000000003 391.70000025600007 445.40000000000003 403.30000025600003 445.40000000000003 413.90000025600006 448.6 423.750000128 455 432.849999872 461.40000000000003 441.95000012800006 471.10000025600004 449.30000025600003 484.099999744 454.899999744L484.099999744 351.10000025600004ZM527.6 670.3000002560001C542.6 667.500000256 554.8000000000001 660.5500001280001 564.2 649.449999872 573.6 638.350000128 578.3000002560001 625.3000002560001 578.3000002560001 610.3000002560001 578.3000002560001 596.900000256 574.350000128 585.350000128 566.449999872 575.649999872 558.5500001280001 565.950000128 545.6 558.499999744 527.6 553.299999744L527.6 670.3000002560001Z"/></g></svg>