<svg viewBox="0 0 1024 1024" version="1.1" xmlns="http://www.w3.org/2000/svg"><g fill="none"><path fill="#FB6500" d="M671.7924352 732.8202464C669.028624 735.613712 667.5879072 739.452672 667.8318336 743.3737568 668.241952 747.256496 670.2128192 750.806064 673.2923104 753.2081632 702.0898816 780.0118048 720.6883136 816.0513824 725.6074304 855.1477376 732.9345216 882.1246816 759.237008 899.4065472 786.920528 895.4330816 814.6040512 891.459616 834.9779232 867.4782144 834.4135776 839.5306016 833.849232 811.582992 812.5238336 788.4427616 784.7024512 785.5889696 748.3611008 778.7163552 715.2515104 760.1910528 690.3908672 732.8202464 685.2049344 727.8094336 676.978368 727.8094336 671.7924352 732.8202464L671.7924352 732.8202464Z"/><path fill="#0082EF" d="M896.2930432 645.2721408C887.3450496 654.2070624 881.7153792 665.9263168 880.334624 678.4926816 873.79128 715.17512 855.3423456 748.6824352 827.8390496 773.8361696 824.4749792 777.355584 823.3457792 782.4516224 824.9084992 787.0616224 826.471216 791.6716256 830.4670496 795.0321216 835.278656 795.7829248 840.3081248 796.5241952 845.2933408 794.1862144 847.9373536 789.8462112 875.185952 760.9942656 911.6235648 742.5093856 951.009136 737.5576736 967.6504192 733.1874656 981.2833728 721.2795392 987.8457792 705.3821088 994.4081824 689.4846784 993.1424928 671.432896 984.4258496 656.6056544 975.7991296 641.7577344 960.7664704 631.7522432 943.7334496 629.5214624 926.7004256 627.2906848 909.5960992 633.0872608 897.4331808 645.2124096L896.2930432 645.2124096 896.2930432 645.2721408Z"/><path fill="#2DBC00" d="M740.4854752 489.6046432C725.4607552 504.6410112 720.4129088 526.966144 727.508288 546.9989184 734.6036672 567.0316895999999 752.5806112 581.2099903999999 773.7240768 583.4490175999999 810.1405408 590.2243008 843.3182112 608.6340896 868.2747008 635.9179168 871.7470336 639.632144 877.0521312 641.0098656 881.894256 639.4548832 886.756768 637.8330464 890.2564448 633.5658816 890.8934976 628.4820928 891.6874272 623.4917216 889.419904 618.5103168 885.1342176 615.829824 856.420192 588.9235744 837.931248 552.8966112 832.8190976 513.8902496000001 827.6418048 494.8810144 812.7053184 480.0801664 793.6425248 475.0694464 774.5797344 470.0587264 754.2907008 475.6004288 740.4268864 489.6046432L740.4854752 489.6046432Z"/><path fill="#FC0" d="M713.3682272 575.7133696000001L713.3682272 576.852928C686.4133248 606.6324704 649.678512 625.7778816 609.8183616 630.8209408 582.8366016 638.1446784 565.5494624 664.4224512 569.5152704 692.0847232 573.4810816 719.7469952 597.455648 740.1152832 625.4093728 739.5711808 653.3631008 739.0270752 676.5260704 717.7412832 679.4113248 689.9456608 686.120688 653.5450944 704.6823616 620.3828 732.2068736 595.6211008 737.1288256 590.4011968 737.1288256 582.2520224 732.2068736 577.0321184 729.9163264 574.30864 726.6181984 572.630624 723.0671936 572.3820448 719.5161888 572.1334656 716.0162368 573.3356031999999 713.3682272 575.7133696000001Z"/><path fill="#0082EF" d="M379.1366368 98.6363836864C283.26640704 107.964191296 193.6096272 150.26886112 125.47872 218.32520544 100.20980352 243.93513248 79.27795136 273.48353152000004 63.503475424 305.81241152 14.688812224 404.30629088 23.068813696 521.4985727999999 85.40162944 612.052768 106.37206112 642.4323072 130.74816479999998 670.3164096 158.05527103999998 695.1620992L146.05628256 788.8272832 144.7368624 792.7249728 144.7368624 802.3790176C145.549984 812.7206432 151.6538176 821.9074144 160.8750128 826.6682592 170.096208 831.429104 181.12447168 831.0875296 190.03304448 825.7651552L191.77313216 824.4464064 220.20979744 810.2341248 305.16357408 766.4600736C345.45444384 778.2216864 387.2604576 783.9802592 429.2324128 783.5499424 481.473744 783.8957664 533.3593312 774.9413088 582.4597312 757.1058528 557.5522368 749.5214784 541.4425472 725.4441696 543.9434464000001 699.5399744 493.4369152 715.9387808 439.9857344 721.2566176 387.235952 715.1307328L378.8964224 713.9911744C359.7920384 711.5705888 340.91301408 707.6203808 322.44141472 702.1786432 312.41782496 699.0674208 301.55123264 700.2621408 292.44394304 705.476688L290.0441456 706.5553472 220.20979744 747.6919008 217.21005056 749.4908352C216.27427168 750.294128 215.0840688 750.740176 213.850568 750.7498528 212.5955328 750.6908288 211.42049184 750.116784 210.60289536 749.1632576 209.78529888 748.2097312 209.39762112 746.9612512 209.53140096 745.7126048L212.11048032 734.9787328 215.17115968 723.4062944 220.20979744 703.9178464 225.90931712 682.0905504C229.79185952 670.09168 225.56394688 656.9554976 215.41020224 649.4696512 187.98301024 629.5058784 164.1462528 605.0325504 144.91614432 577.0930208 95.94397599999999 505.9397056 89.3332576 413.8686528 127.63830368 336.45518591999996 140.42023168 310.79405184 157.18611776 287.31721568 177.31341344 266.89641568 233.70862528 210.72066048 307.95352928 175.98184320000001 387.2371232 168.67416672000002 415.740112 165.39305919999998 444.5257344 165.39305919999998 473.02872 168.67416672000002 551.9161408 176.70370431999999 625.6369536 211.61909984 681.8111232 267.5569616 702.0898816 287.70361376 719.1286816 310.97029152 732.1471136 336.45518591999996 748.171792 369.21122976 756.560896 405.17114304 756.6841088 441.6330784L756.6841088 452.7862336C778.4015776 439.468336 806.4176064 442.7390912 824.4795648 460.701072L827.1195776 463.699296C831.2483904 409.67473408 820.8282176 355.53064704 796.9416512 306.89224 781.2940288 274.65312896 760.595216 245.11875936 735.6272896 219.40503424000002 667.863232 151.35225536000002 578.6154752 108.848356384 483.0485792 99.1153966336 448.5347872 95.1287996576 413.6858368 94.9677602976 379.1366368 98.6352125056L379.1366368 98.6363836864Z"/></g></svg>