<?xml version="1.0" encoding="UTF-8"?>
<svg width="28px" height="28px" viewBox="0 0 28 28" version="1.1" xmlns="http://www.w3.org/2000/svg" xmlns:xlink="http://www.w3.org/1999/xlink">
    <title>Icon/彩色图标/错</title>
    <g id="效果展示" stroke="none" stroke-width="1" fill="none" fill-rule="evenodd">
        <g id="-图标/Guide新手指引-/-No-permisson无权限" transform="translate(-256.000000, -441.000000)" fill-rule="nonzero">
            <g id="编组" transform="translate(254.000000, 439.000000)">
                <path d="M16,2 C8.26875,2 2,8.26875 2,16 C2,23.73125 8.26875,30 16,30 C23.73125,30 30,23.73125 30,16 C30,8.26875 23.73125,2 16,2 L16,2 Z" id="路径" fill="#FFDDDD"></path>
                <path d="M12.2759591,11.1568552 L12.3656854,11.2343146 L15.8,14.669 L19.2343146,11.2343146 C19.546734,10.9218951 20.053266,10.9218951 20.3656854,11.2343146 C20.6497031,11.5183322 20.6755229,11.9627735 20.4431448,12.2759591 L20.3656854,12.3656854 L16.931,15.8 L20.3656854,19.2343146 C20.6781049,19.546734 20.6781049,20.053266 20.3656854,20.3656854 C20.0816678,20.6497031 19.6372265,20.6755229 19.3240409,20.4431448 L19.2343146,20.3656854 L15.8,16.931 L12.3656854,20.3656854 C12.053266,20.6781049 11.546734,20.6781049 11.2343146,20.3656854 C10.9502969,20.0816678 10.9244771,19.6372265 11.1568552,19.3240409 L11.2343146,19.2343146 L14.669,15.8 L11.2343146,12.3656854 C10.9218951,12.053266 10.9218951,11.546734 11.2343146,11.2343146 C11.5183322,10.9502969 11.9627735,10.9244771 12.2759591,11.1568552 Z" id="形状结合" fill="#EA3636"></path>
            </g>
        </g>
    </g>
</svg>