<?xml version="1.0" encoding="UTF-8"?>
<svg width="32px" height="32px" viewBox="0 0 32 32" version="1.1" xmlns="http://www.w3.org/2000/svg" xmlns:xlink="http://www.w3.org/1999/xlink">
    <!-- Generator: Sketch 60 (88103) - https://sketch.com -->
    <title>Icon/线性/info</title>
    <desc>Created with Sketch.</desc>
    <defs>
        <path d="M16,2 C8.26875,2 2,8.26875 2,16 C2,23.73125 8.26875,30 16,30 C23.73125,30 30,23.73125 30,16 C30,8.26875 23.73125,2 16,2 L16,2 Z M16,4 C17.621875,4 19.190625,4.315625 20.66875,4.94375 C22.096875,5.546875 23.38125,6.4125 24.484375,7.515625 C25.5875,8.61875 26.453125,9.903125 27.05625,11.33125 C27.68125,12.809375 28,14.38125 28,16 C28,17.61875 27.684375,19.190625 27.05625,20.66875 C26.453125,22.096875 25.5875,23.38125 24.484375,24.484375 C23.38125,25.5875 22.096875,26.453125 20.66875,27.05625 C19.190625,27.68125 17.61875,28 16,28 C14.38125,28 12.809375,27.684375 11.33125,27.05625 C9.903125,26.453125 8.61875,25.5875 7.515625,24.484375 C6.4125,23.38125 5.546875,22.096875 4.94375,20.66875 C4.31875,19.190625 4,17.61875 4,16 C4,14.38125 4.315625,12.809375 4.94375,11.33125 C5.546875,9.903125 6.4125,8.61875 7.515625,7.515625 C8.61875,6.4125 9.903125,5.546875 11.33125,4.94375 C12.809375,4.315625 14.378125,4 16,4 Z M17.2126761,12.6952037 C16.7719521,12.4725172 16.178578,12.4336825 15.4325361,12.5786983 C14.5870219,12.7430496 13.7848279,13.183303 13.0259301,13.8994718 C12.2670322,14.6156405 13.0691015,15.2766686 13.5416645,14.7603235 C14.0142275,14.2439785 14.4345264,13.9500398 14.8025737,13.8784986 C15.1507266,13.8108245 15.3525528,13.9197616 15.4080584,14.2053132 C15.453063,14.4368415 15.4017577,14.8632869 15.254141,15.4846622 C15.1065244,16.1060376 14.8321708,17.0844164 14.4310722,18.419828 C13.7047372,20.8436381 13.3910793,22.3102023 13.4900893,22.8195645 C13.6071012,23.4215381 13.9067476,23.8478427 14.3890375,24.0984911 C14.8713275,24.3491394 15.4805107,24.4029216 16.2166054,24.2598393 C17.0919613,24.0896874 17.931555,23.6161347 18.7354116,22.839167 C19.5392682,22.0621993 18.6242483,21.4972118 18.1939207,21.9653011 C17.763593,22.4333904 17.3544645,22.7051351 16.9665227,22.7805434 C16.5188975,22.8675529 16.2553349,22.7065434 16.1758268,22.2975101 C16.1233215,22.0273937 16.1788503,21.5961228 16.3424148,21.0036844 C17.5748373,16.7755391 18.1317842,14.3566572 18.0132722,13.746966 C17.9202628,13.2684742 17.6534001,12.9178902 17.2126761,12.6952037 Z M17.5,8 C16.6715729,8 16,8.67157288 16,9.5 C16,10.3284271 16.6715729,11 17.5,11 C18.3284271,11 19,10.3284271 19,9.5 C19,8.67157288 18.3284271,8 17.5,8 Z" id="path-1"></path>
    </defs>
    <g id="Icon/线性/info" stroke="none" stroke-width="1" fill="none" fill-rule="evenodd">
        <mask id="mask-2" fill="white">
            <use xlink:href="#path-1"></use>
        </mask>
        <use id="提示" fill="#7A8193" fill-rule="nonzero" xlink:href="#path-1"></use>
        <g id="Color/中黑" mask="url(#mask-2)" fill="#63656E">
            <rect id="Rectangle" x="0" y="0" width="32" height="32"></rect>
        </g>
    </g>
</svg>