<?xml version="1.0" encoding="utf-8"?>
<!-- Generator: Adobe Illustrator 22.1.0, SVG Export Plug-In . SVG Version: 6.00 Build 0)  -->
<svg version="1.1" id="图层_1" xmlns="http://www.w3.org/2000/svg" xmlns:xlink="http://www.w3.org/1999/xlink" x="0px" y="0px"
	 viewBox="0 0 168 35" style="enable-background:new 0 0 168 35;" xml:space="preserve">
<style type="text/css">
	.st0{fill:#FFFFFF;}
</style>
<path id="形状结合" class="st0" d="M80.9,14.6c0,0.5-0.4,0.9-0.9,0.9H68.8c-0.7,0-1.1-0.6-0.9-1.3l0.9-2.3
	c0.2-0.5,0.7-0.7,1.2-0.5h0.1c0.5,0.2,0.7,0.7,0.6,1.2l-0.4,1h9.6C80.5,13.7,80.9,14.1,80.9,14.6L80.9,14.6z M64.5,11.4L64.5,11.4
	c0.6,0,1,0.4,1,0.9V20c0,0.5-0.4,0.9-0.9,0.9h-0.1c-0.5,0-0.9-0.5-0.9-0.9v-7.7C63.6,11.8,64,11.4,64.5,11.4z M56.9,9.3
	c-0.5,0-0.9-0.4-0.9-0.9l0,0c0-0.5,0.4-0.9,0.9-0.9h4.3v-1c0-0.5,0.4-0.9,0.9-0.9h0.1c0.5,0,0.9,0.4,0.9,0.9v0.9h11.3V6.5
	c0-0.5,0.4-0.9,0.9-0.9h0.1c0.5,0,0.9,0.4,0.9,0.9v0.9h4.3c0.5,0,0.9,0.4,0.9,0.9l0,0c0,0.5-0.4,0.9-0.9,0.9h-4.3V10
	c0,0.5-0.4,0.9-0.9,0.9h-0.1c-0.5,0-0.9-0.4-0.9-0.9V9.3H63.1v0.8c0,0.5-0.4,0.9-0.9,0.9h-0.1c-0.5,0-0.9-0.4-0.9-0.9V9.3H56.9z
	 M69.3,18.3h10c0.5,0,0.9,0.4,0.9,0.9l0,0c0,0.5-0.4,0.9-0.9,0.9h-10c-0.5,0-0.9-0.4-0.9-0.9l0,0C68.4,18.7,68.8,18.3,69.3,18.3z
	 M59.5,12.3L59.5,12.3c0.5,0,1,0.4,1,0.9v6.1c0,0.5-0.5,0.9-0.9,0.9h-0.1c-0.5,0-0.9-0.4-0.9-0.9v-6.1C58.6,12.8,59,12.3,59.5,12.3z
	 M109.2,8.1c0.5,0,0.9,0.5,0.9,0.9v0.1c0,0.5-0.4,0.9-0.9,0.9H96.9C96.4,10,96,9.6,96,9.1l0,0c0-0.5,0.4-0.9,0.9-0.9h5.2V6.7
	c0-0.5,0.4-0.9,0.9-0.9h0.1c0.5,0,0.9,0.4,0.9,0.9v1.4C104,8.1,109.2,8.1,109.2,8.1z M86.9,16.3v8.5l0,0c0.1,0.5,0.5,0.8,1,0.8l0,0
	h4.8l0,0c0.5,0,1-0.4,1-1c0-0.1,0-0.2,0-0.3v-0.5c-0.1-0.1-0.2-0.1-0.3-0.2L86.9,16.3z M85,25.2L85,25.2v-0.1V25v-9.2v-2.1
	c0-0.5,0.4-0.9,0.9-0.9H86c0.3,0,0.6,0.2,0.8,0.5l6.9,7.8V16c0-0.1,0-0.2,0-0.3c0-0.5-0.4-1-1-1H92c0,0,0,0-0.1,0c0,0,0,0-0.1,0
	c-0.4,0-0.7-0.2-0.9-0.5c-0.1-0.2-0.2-0.4-0.2-0.6c0-0.2,0.1-0.5,0.2-0.6v-0.1l0.9-2.3h-5.3c-0.3,0-0.6-0.1-0.7-0.4
	c-0.2-0.2-0.3-0.5-0.1-0.8L86.4,7c0.1-0.5,0.7-0.7,1.2-0.6l0,0c0.5,0.2,0.8,0.7,0.6,1.2L88,8.5h5.4c0.3,0,0.6,0.1,0.8,0.4
	c0.2,0.3,0.2,0.6,0.1,0.9l-1.2,2.9c0.7,0,1.3,0.3,1.8,0.7c0.5,0.5,0.7,1.1,0.7,1.8V25c0,1-0.6,1.9-1.6,2.3c-0.3,0.1-0.6,0.2-0.9,0.2
	h-5.6c-0.7,0-1.3-0.2-1.8-0.7C85.3,26.3,85.1,25.8,85,25.2C85,25.3,85,25.2,85,25.2z M109.1,29.5c0.5,0,0.9,0.3,0.9,0.9
	c0,0.4-0.2,0.7-0.5,0.9c-0.1,0.1-0.3,0.1-0.5,0.1h-0.3c-1.4,0-2.5-1.1-2.5-2.5v-5.5c0-0.5,0.4-1,1-1s1,0.4,1,1v3v2.1v0.1
	C108.2,29.1,108.6,29.5,109.1,29.5L109.1,29.5z M77.5,29.4v-4.7c0-0.3-0.1-0.6-0.3-0.8c-0.2-0.2-0.5-0.3-0.8-0.3h-0.5H73v5.8h1.9
	C74.9,29.4,77.5,29.4,77.5,29.4z M66.6,29.4h4.5v-5.8h-4.5V29.4z M64.7,29.4v-5.8h-2.9h-0.5c-0.3,0-0.6,0.1-0.8,0.3
	c-0.2,0.2-0.3,0.5-0.3,0.8v4.7l0,0h2.6C62.8,29.4,64.7,29.4,64.7,29.4z M99.2,22.3c0.5,0,1,0.4,1,1v5.5c0,1.4-1.1,2.5-2.5,2.5h-0.3
	l0,0l0,0H56.9c-0.5,0-0.9-0.4-0.9-0.9l0,0c0-0.5,0.4-0.9,0.9-0.9h1.3v-4.7c0-0.4,0.1-0.8,0.2-1.2c0.5-1.1,1.5-1.9,2.8-1.9h0.5h0.2
	h10h4h0.5c1.3,0,2.3,0.7,2.8,1.9c0.1,0.4,0.2,0.7,0.2,1.2v4.7h1.3h16.6l0,0c0,0,0,0,0.1,0l0,0c0.5,0,0.8-0.4,0.8-0.8v-0.1v-2.2v-3
	C98.3,22.8,98.7,22.3,99.2,22.3z M99.8,19.5h6.5c0.1,0,0.3,0,0.4-0.1s0.3-0.1,0.4-0.3c0.2-0.2,0.3-0.5,0.3-0.8v-3.5
	c0-0.3-0.1-0.6-0.3-0.8c-0.2-0.2-0.5-0.3-0.7-0.3h-2.9h-0.8h-2.9c-0.3,0-0.5,0.1-0.7,0.3s-0.3,0.5-0.3,0.8v3.5
	c0,0.3,0.1,0.6,0.3,0.8c0.1,0.1,0.2,0.2,0.4,0.3C99.5,19.4,99.7,19.5,99.8,19.5z M108.5,20.5c-0.6,0.6-1.3,0.9-2.1,0.9h-2.1v9.1
	c0,0.5-0.4,1-1,1c0,0,0,0-0.1,0c0,0,0,0-0.1,0c-0.5,0-0.9-0.4-0.9-0.9v-9.2h-2.4l0,0c-0.8,0-1.6-0.3-2.1-0.9
	c-0.1-0.1-0.2-0.2-0.2-0.3c-0.4-0.5-0.7-1.2-0.7-1.8v-2.1V15c0-0.4,0.1-0.8,0.3-1.2c0.2-0.4,0.4-0.7,0.6-0.9
	c0.6-0.6,1.4-0.9,2.1-0.9h2.9h0.8h2.9c0.8,0,1.6,0.3,2.1,0.9c0.3,0.3,0.5,0.6,0.6,0.9c0.1,0.4,0.3,0.8,0.3,1.2v1.3v2.1
	c0,0.7-0.2,1.3-0.7,1.8C108.7,20.3,108.6,20.4,108.5,20.5z M143,8.9c-0.5,0-0.8-0.4-0.8-0.9l0,0c0-0.5,0.4-0.9,0.8-0.9h21.1
	c0.5,0,0.8,0.4,0.8,0.9l0,0c0,0.5-0.4,0.9-0.8,0.9H143z M165.5,14.6c0.5,0,0.8,0.4,0.8,0.9l0,0c0,0.5-0.4,0.9-0.8,0.9H148l-3,12.9
	h16c0.9,0,1.6-0.7,1.6-1.6v-5.6l0,0c0.1-0.5,0.4-0.8,0.9-0.8s1,0.4,1,1v0.1v5.3c0,1.9-1.6,3.5-3.5,3.5h-18.4l3.4-14.9h-4.1
	c-0.5,0-0.8-0.4-0.8-0.9l0,0c0-0.5,0.4-0.9,0.8-0.9L165.5,14.6L165.5,14.6z M119.6,14.5c-1.1,2.1-3.2,3.6-6.1,4.7
	c-0.1,0-0.1,0.1-0.2,0.1h-0.1l0,0h-0.1c-0.5,0-1-0.4-1-1c0-0.3,0.2-0.6,0.5-0.8l0,0c1.7-0.6,3.1-1.4,4.1-2.3l0,0c0,0,0,0,0.1-0.1
	c0.3-0.3,0.6-0.6,0.8-0.9c0.1-0.2,0.2-0.3,0.3-0.5h-4.4c-0.5,0-0.9-0.4-0.9-0.9l0,0c0-0.5,0.4-0.9,0.9-0.9h5.2c0.1-0.4,0-0.6,0-0.6
	l0,0c0-0.2,0-0.4,0-0.6V9.5H114c-0.3,0-0.6-0.1-0.7-0.4c-0.2-0.2-0.3-0.5-0.1-0.8l0.7-2.1c0.1-0.5,0.7-0.7,1.2-0.6l0,0
	c0.5,0.2,0.8,0.7,0.6,1.2l-0.3,0.8h9.4h0.1c0.1,0,0.2,0,0.3,0.1c0.1,0,0.1,0.1,0.2,0.1s0.1,0.1,0.1,0.1s0.1,0,0.1,0.1v0.1
	c0,0.1,0,0.1,0.1,0.2c0,0.1,0,0.1,0,0.2l0,0c0,0.1,0,0.2-0.1,0.3v0.1l0,0c-0.1,0.4-0.5,0.6-0.9,0.6l0,0h-1.4h-1.8h-1v1.1
	c0,0.4,0,0.9-0.1,1.3h4.8c0.5,0,0.9,0.4,0.9,0.9l0,0c0,0.5-0.4,0.9-0.9,0.9h-3.5l0.1,0.2l4.1,3.5c0.4,0.1,0.7,0.5,0.7,0.9
	c0,0.5-0.4,1-1,1c-0.3,0-0.5-0.1-0.7-0.3l-0.1,0.1L119.6,14.5z M134.3,24.7V23c0-0.6-0.5-1.1-1.1-1.1h-16.1c-0.6,0-1.1,0.5-1.1,1.1
	v1.7H134.3z M134.3,28.3v-1.7h-18.2v1.7c0,0.6,0.5,1.1,1.1,1.1h16.1C133.9,29.4,134.3,28.9,134.3,28.3z M133.3,20c1.6,0,3,1.3,3,3
	v5.3c0,1.7-1.3,3-3,3h-16.1c-1.6,0-3-1.3-3-3V23c0-1.7,1.3-3,3-3H133.3z M136,15.7V9.6c0-0.6-0.5-1.1-1.1-1.1h-4.6
	c-0.6,0-1.1,0.5-1.1,1.1v6.2c0,0.6,0.5,1.1,1.1,1.1h4.6C135.5,16.8,136,16.3,136,15.7z M134.9,6.5c1.7,0,3,1.4,3,3v6.2
	c0,1.7-1.4,3-3,3h-4.6c-1.7,0-3-1.3-3-3V9.6c0-1.7,1.3-3,3-3h4.6V6.5z"/>
<path id="Fill-4" class="st0" d="M12.9,6.8C12.1,6.2,11.1,6,10,6.2c-0.1,0-0.5-3.6,0-3.7c1.5-0.4,3,0.3,4,1.4c0,0.2-0.1,0.4-0.1,0.5
	c0.3-1.9,0.8-3.4,2.4-4.5c0,0,0.2,1.7,0.2,1.9c0,0.4,0.1,1.6-0.2,1.9c-0.9,0.7-1.6,1.5-1.9,2.6c1.4-0.4,2.9-0.5,4.4-0.3
	c6,0.8,9.9,6.2,10.4,11.8c0.6,5.7,4.1,12.3,11,10.4c1.5-0.4,2-0.7,2.6-2.3c0.6-1.7,0.7-3.6,0.4-5.4c-0.6-3.3-3-6.2-5.9-7.9
	c-0.7-0.4-1.5-0.6-2.3-1c-0.9-0.5-0.9-0.2-1.1-1.4c-0.2-1.4-0.6-2.8-1.5-4c-2.3-2.9-8.4-5-11.5-1.6c-0.4,0.4-2.9,2.6-1.5,1
	c1.9-2.1,4.1-4.3,7-4.9c4-0.8,8.3,1.4,9.6,5.3c0.3,0.8,0.1,1.8,0.4,2.5c0.3,0.8,0.7,0.7,1.6,1c1.9,0.7,3.6,1.9,4.9,3.4
	c2.5,2.8,3.6,6.8,2.4,10.4c-1.2,3.5-5,7.1-8.7,7.6c-6.5,0.9-9.4-5.3-10-10.7c-0.6-5.9-5-11.5-11.3-11.8C8.6,8,5,13.5,3.2,19.3
	C1.6,24.5,2.5,32,9.3,32.5c2.9,0.2,5.8,0,8.7,0h23.2c-0.6,0-1.5,2.4-2.5,2.4H13.6c-2.2,0-4.6,0.2-6.8,0c-6.7-0.5-7.6-7.9-6.1-13
	C2.3,16.1,6.8,9,12.9,6.8z"/>
</svg>
