<?xml version="1.0" encoding="UTF-8"?>
<svg width="28px" height="28px" viewBox="0 0 28 28" version="1.1" xmlns="http://www.w3.org/2000/svg" xmlns:xlink="http://www.w3.org/1999/xlink">
    <title>Icon/彩色图标/对</title>
    <g id="效果展示" stroke="none" stroke-width="1" fill="none" fill-rule="evenodd">
        <g id="-图标/Guide新手指引-/-No-permisson无权限" transform="translate(-388.000000, -441.000000)" fill-rule="nonzero">
            <g id="编组" transform="translate(386.000000, 439.000000)">
                <path d="M16,2 C8.26875,2 2,8.26875 2,16 C2,23.73125 8.26875,30 16,30 C23.73125,30 30,23.73125 30,16 C30,8.26875 23.73125,2 16,2 L16,2 Z" id="路径" fill="#E5F6EA"></path>
                <path d="M20.4343146,12.4343146 C20.746734,12.1218951 21.253266,12.1218951 21.5656854,12.4343146 C21.8497031,12.7183322 21.8755229,13.1627735 21.6431448,13.4759591 L21.5656854,13.5656854 L15.3179156,19.8134552 C15.0338979,20.0974729 14.5894567,20.1232927 14.2762711,19.8909146 L14.1865448,19.8134552 L10.4343146,16.0612251 C10.1218951,15.7488056 10.1218951,15.2422737 10.4343146,14.9298542 C10.7183322,14.6458366 11.1627735,14.6200168 11.4759591,14.8523949 L11.5656854,14.9298542 L14.752,18.116 L20.4343146,12.4343146 Z" id="路径-26" fill="#3FC06D"></path>
            </g>
        </g>
    </g>
</svg>