
<svg xmlns="http://www.w3.org/2000/svg" viewBox="0 0 120 120" class="design-iconfont">
  <g fill-rule="nonzero" fill="none">
    <path d="M60,120 C26.784,120 0,93.0704 0,60 C0,26.9752 26.764,0 60,0 C93.0232001,0 120,26.756 120,60 C120,93.24 93.044,120 60,120 M21.2592,7.34799999 C21.5591999,8.90400001 20.52,10.412 18.9648001,10.712 C17.4091366,11.0119414 15.904852,9.99404212 15.6048001,8.43840001 C15.3048001,6.88320004 16.3192001,5.35759997 17.8744,5.05760002 C19.439682,4.76450394 20.9492287,5.7859722 21.2592,7.34799999 M26.6968,2.84400006 C26.888,3.83520004 26.2264,4.79440006 25.236,4.98560003 C24.7605138,5.07731597 24.2680687,4.97636029 23.867027,4.7049482 C23.4659853,4.4335361 23.1892081,4.01390705 23.0976,3.53839999 C22.9072,2.54880002 23.552,1.57759999 24.5424001,1.38640001 C25.5389469,1.19953385 26.5000662,1.85015417 26.6968,2.84480001 M106.8464,116.1016 C107.1464,117.6576 106.1072,119.1656 104.552,119.4656 C102.996337,119.765541 101.492052,118.747642 101.192,117.192 C100.892,115.6368 101.9064,114.1112 103.4616,113.8112 C105.026882,113.518104 106.536429,114.539572 106.8464,116.1016 M112.284,111.5984 C112.4744,112.5888 111.8136,113.5488 110.8232,113.7392 C110.347714,113.830916 109.855269,113.72996 109.454227,113.458548 C109.053185,113.187136 108.776408,112.767507 108.6848,112.292 C108.4936,111.3024 109.1392,110.332 110.1296,110.14 C111.126242,109.952674 112.087658,110.603494 112.284,111.5984 M18.8216,113.428 C19.1224001,114.984 18.0832,116.492 16.5272,116.7928 C15.7800257,116.936819 15.0062431,116.778095 14.3761064,116.351553 C13.7459697,115.92501 13.3111068,115.265596 13.1672,114.5184 C12.868,112.9632 13.8816,111.4384 15.4376,111.1384 C17.0026042,110.845793 18.5116203,111.867144 18.8216,113.4288" fill="#F0F5FF"/>
    <path d="M117.391304,32.2384112 L117.391304,92.0910581 C117.391304,93.9580732 116.648387,95.7488142 115.324329,97.0690681 C114.000271,98.389322 112.20425,99.1304348 110.331643,99.1304348 L10.5467227,99.1304348 C6.6560685,99.1304348 3.47826087,95.9796656 3.47826087,92.0910581 L3.47826087,32.2384112 C3.47826087,31.7247163 3.89988844,31.3043478 4.41512207,31.3043478 L116.454443,31.3043478 C116.979277,31.3043478 117.391304,31.7247163 117.391304,32.2384112" fill="#F9FAFD"/>
    <path d="M10.5469271,18.2608696 C6.65580071,18.2608696 3.47826087,21.5215574 3.47826087,25.5364854 L3.47826087,32.0784463 C3.47826087,32.6095433 3.89985291,33.0434783 4.41584317,33.0434783 L116.453722,33.0434783 C116.969712,33.0434783 117.391304,32.6095433 117.391304,32.0784463 L117.391304,25.5364854 C117.391304,21.5223809 114.223364,18.2608696 110.322638,18.2608696 L10.5469271,18.2608696 Z" fill="#A3C5FD"/>
    <path d="M12.9844197,25.2434514 C12.9844197,26.1893384 12.2191804,26.9561313 11.2752099,26.9561313 C10.3312394,26.9561313 9.56600005,26.1893384 9.56600005,25.2434514 C9.54718453,24.619236 9.86878031,24.0341966 10.4053537,23.716519 C10.9419272,23.3988415 11.6084926,23.3988415 12.145066,23.716519 C12.6816394,24.0341966 13.0032352,24.619236 12.9844197,25.2434514 M19.1003201,25.2434514 C19.1003201,26.1893384 18.3350808,26.9561313 17.3911103,26.9561313 C16.4471398,26.9561313 15.6819005,26.1893384 15.6819005,25.2434514 C15.6686712,24.62271 15.9915947,24.0433633 16.525987,23.7291027 C17.0603793,23.4148422 17.7226206,23.4148422 18.2570129,23.7291027 C18.7914052,24.0433633 19.1143287,24.62271 19.1010995,25.2434514 M25.2169999,25.2434514 C25.2169999,26.189554 24.4515861,26.9565217 23.5074004,26.9565217 C22.5632147,26.9565217 21.7978009,26.189554 21.7978009,25.2434514 C21.7845716,24.62271 22.1074951,24.0433633 22.6418875,23.7291027 C23.1762798,23.4148422 23.838521,23.4148422 24.3729133,23.7291027 C24.9073056,24.0433633 25.2302291,24.62271 25.2169999,25.2434514" fill="#FFF"/>
    <path d="M73.869127,42.3159203 L73.869127,68.1551805 C73.869127,68.9535405 73.2193862,69.6007391 72.4178904,69.6007391 L16.2346449,69.6007391 C15.4330196,69.6007391 14.7826087,68.9536693 14.7826087,68.1551805 L14.7826087,42.3159203 C14.7826087,41.5170799 15.4326668,40.8695652 16.2346449,40.8695652 L72.4178904,40.8695652 C73.2198685,40.8695652 73.869127,41.5170799 73.869127,42.3159203 M73.3454025,75.7286332 C73.3454025,76.104626 73.1954533,76.4652192 72.9285419,76.7310864 C72.6616305,76.9969535 72.2996209,77.1463161 71.9221512,77.1463161 L23.7027164,77.1463161 C22.9166764,77.1463161 22.2794651,76.5115978 22.2794651,75.7286332 C22.2794651,74.9456686 22.9166764,74.3109504 23.7027164,74.3109504 L71.9237504,74.3109504 C72.7089374,74.3109504 73.3470017,74.9457219 73.3470017,75.7286332 M73.3454025,81.502903 C73.3454025,81.8788959 73.1954533,82.2394891 72.9285419,82.5053562 C72.6616305,82.7712233 72.2996209,82.9205859 71.9221512,82.9205859 L16.2066596,82.9205859 C15.4206196,82.9205859 14.7834083,82.2858677 14.7834083,81.5029031 C14.7834083,80.7199385 15.4206196,80.0852203 16.2066596,80.0852203 L71.9237504,80.0852203 C72.7089374,80.0852203 73.3470017,80.7199917 73.3470017,81.502903 M73.3454025,87.2779694 C73.3454025,88.060934 72.7081912,88.6956522 71.9221512,88.6956522 L16.2066596,88.6956522 C15.4206196,88.6956522 14.7834083,88.060934 14.7834083,87.2779694 C14.7834083,86.4950048 15.4206196,85.8602865 16.2066596,85.8602865 L71.9237504,85.8602865 C72.7089374,85.8602865 73.3470017,86.495058 73.3470017,87.2779694 M106.956522,42.6727304 L106.956522,86.8916906 C106.956522,87.3700578 106.76569,87.8288206 106.42603,88.1670025 C106.086369,88.5051844 105.62572,88.6948558 105.145474,88.6948558 L83.6287931,88.6948558 C82.6293331,88.6948558 81.8193449,87.8872402 81.8193449,86.8916906 L81.8193449,42.6727304 C81.8193449,41.6768698 82.6298204,40.8695652 83.6295926,40.8695652 L105.146274,40.8695652 C106.146046,40.8695652 106.956522,41.6768698 106.956522,42.6727304" fill="#E1ECFF"/>
    <path d="M38.2608696,60.7943796 C38.2608696,70.9967691 45.3327956,79.5463521 54.86571,81.862217 L59.1439078,90.7417161 C59.4991517,91.4918918 60.5849764,91.4918918 60.9506687,90.7417161 L65.207166,81.862217 C90.0895114,75.8454853 85.6803074,39.1304348 60.0424659,39.1304348 C48.0156105,39.1304348 38.2608696,48.837547 38.2608696,60.7943796" fill="#A3C5FD"/>
    <path d="M57.3456908,49.0832446 C56.8167262,48.6895341 56.1332314,48.5886166 55.5178925,48.8133715 C54.102805,49.3412774 52.7871523,50.1168001 51.6290778,51.1056666 C51.1322984,51.5344289 50.8758745,52.1894568 50.9452346,52.8525256 C51.0440559,53.8531693 50.8701305,54.8196725 50.3989506,55.6528649 C49.9269802,56.4868702 49.19175,57.1233479 48.2920812,57.536286 C47.7505407,57.7850245 47.2706646,58.302823 47.1497072,59.0173363 C46.8921266,60.5305092 46.8921266,62.0781864 47.1497072,63.5913593 C47.2706645,64.3066854 47.7505405,64.8236711 48.2920812,65.0724096 C49.1917501,65.4853478 49.9269803,66.1226384 50.3989506,66.9558308 C50.8701304,67.7890232 51.0440559,68.7555264 50.9452346,69.7561701 C50.8867324,70.3576943 51.0851656,71.0380671 51.6290778,71.5022161 C52.7873048,72.4914923 54.1032417,73.2672999 55.5186831,73.7953241 C56.1334288,74.0197378 56.8161802,73.9191466 57.3449001,73.5262639 C58.1473289,72.9377456 59.055694,72.6069072 60.0004254,72.6069072 C60.9443662,72.6069072 61.8527313,72.9377456 62.6543694,73.5254511 C63.183334,73.9191616 63.8668288,74.0200791 64.4821677,73.7953241 C65.8969834,73.2673487 67.212365,72.4918281 68.3701917,71.503029 C68.9148946,71.0380671 69.1133278,70.3568815 69.0548255,69.7561701 C68.9560043,68.7555263 69.1291391,67.7890232 69.6011094,66.9558308 C70.0730797,66.1226385 70.8083101,65.4853478 71.707979,65.0724096 C72.2495195,64.8236711 72.7293956,64.3058726 72.8503528,63.5913593 C73.1078534,62.0781792 73.1078534,60.5305164 72.8503528,59.0173363 C72.7293956,58.302823 72.2495195,57.7858374 71.707979,57.537099 C70.8083101,57.122535 70.0730799,56.4868702 69.6011094,55.6528649 C69.129139,54.8196726 68.9560042,53.8531693 69.0548255,52.8525256 C69.1237225,52.1895875 68.8670176,51.5349039 68.3701917,51.1064795 C67.2121942,50.1172976 65.8965333,49.341495 64.4813771,48.8133715 C63.8666313,48.5889578 63.1838799,48.6895489 62.6551599,49.0824317 C61.8527312,49.67095 60.9443661,50.0009754 60.0004254,50.0009754 C59.055694,50.0009754 58.1473289,49.6709499 57.3456908,49.0824317 L57.3456908,49.0832446 Z M56.087103,61.3039413 C56.087103,59.101062 57.8390065,57.3151853 60.0004254,57.3151853 C62.1610536,57.3151853 63.9129572,59.101062 63.9129572,61.3039413 C63.9129572,63.5068207 62.1610536,65.2935103 59.9996348,65.2935103 C57.8390065,65.2935103 56.087103,63.5076336 56.087103,61.3039413 L56.087103,61.3039413 Z" fill="#FFF"/>
  </g>
</svg>
