<svg xmlns="http://www.w3.org/2000/svg" viewBox="0 0 176 176" class="design-iconfont">
  <g fill="none" fill-rule="evenodd">
    <path stroke="#E1ECFF" d="M88 18.5A69.5 69.5 0 1 0 88 157.5A69.5 69.5 0 1 0 88 18.5Z"/>
    <path stroke="#E1ECFF" opacity=".5958499" d="M88 0.5A87.5 87.5 0 1 0 88 175.5A87.5 87.5 0 1 0 88 0.5Z"/>
    <path d="M52.5,0 C81.495,0 105,23.505 105,52.5 C105,81.495 81.495,105 52.5,105 C23.505,105 0,81.495 0,52.5 C0,23.505 23.505,0 52.5,0 Z M63.82725,54.3653906 C60.5001797,56.3077734 56.6304141,57.421875 52.5000234,57.421875 C48.3696328,57.421875 44.49975,56.3077734 41.1727969,54.3653906 C31.7395547,57.5741016 24.1092422,64.68 20.1970547,73.7640234 C27.1141641,84.2505469 38.9977969,91.171875 52.5000234,91.171875 C66.00225,91.171875 77.8858828,84.2505469 84.802875,73.7640234 C80.8906875,64.68 73.2604922,57.5741016 63.82725,54.3653906 Z M52.5,17.34375 C42.7918359,17.34375 34.921875,25.2137109 34.921875,34.921875 C34.921875,44.6300391 42.7918359,52.5 52.5,52.5 C62.2081641,52.5 70.078125,44.6300391 70.078125,34.921875 C70.078125,25.2137109 62.2081641,17.34375 52.5,17.34375 Z" transform="translate(35.5 35.5)" fill="#E1ECFF" fill-rule="nonzero"/>
  </g>
</svg>
